<svg xmlns="http://www.w3.org/2000/svg" width="1600" height="900" viewBox="0 0 1600 900">
  <defs>
    <linearGradient id="bg" x1="0" x2="0" y1="0" y2="1">
      <stop offset="0" stop-color="#061126"/>
      <stop offset="0.55" stop-color="#04101c"/>
      <stop offset="1" stop-color="#020617"/>
    </linearGradient>
    <radialGradient id="g1" cx="45%" cy="35%" r="65%">
      <stop offset="0" stop-color="#3b82f6" stop-opacity="0.16"/>
      <stop offset="0.55" stop-color="#22c55e" stop-opacity="0.10"/>
      <stop offset="1" stop-color="#000" stop-opacity="0"/>
    </radialGradient>
    <filter id="noise" x="-20%" y="-20%" width="140%" height="140%">
      <feTurbulence type="fractalNoise" baseFrequency=".7" numOctaves="3" stitchTiles="stitch"/>
      <feColorMatrix type="matrix" values="0 0 0 0 0
                                         0 0 0 0 0
                                         0 0 0 0 0
                                         0 0 0 .06 0"/>
    </filter>
  </defs>

  <rect width="1600" height="900" fill="url(#bg)"/>
  <rect width="1600" height="900" fill="url(#g1)"/>

  <!-- Ground -->
  <rect x="0" y="640" width="1600" height="260" fill="#0b1324"/>

  <!-- Building frame -->
  <g fill="none" stroke="#2b3a56" stroke-width="10" opacity="0.95">
    <rect x="360" y="420" width="520" height="240" rx="8"/>
    <line x1="360" y1="500" x2="880" y2="500"/>
    <line x1="360" y1="580" x2="880" y2="580"/>
    <line x1="440" y1="420" x2="440" y2="660"/>
    <line x1="520" y1="420" x2="520" y2="660"/>
    <line x1="600" y1="420" x2="600" y2="660"/>
    <line x1="680" y1="420" x2="680" y2="660"/>
    <line x1="760" y1="420" x2="760" y2="660"/>
    <line x1="840" y1="420" x2="840" y2="660"/>
  </g>

  <!-- Crane -->
  <g fill="none" stroke="#334155" stroke-width="12" opacity="0.9">
    <line x1="1020" y1="240" x2="1020" y2="660"/>
    <line x1="1020" y1="260" x2="1340" y2="260"/>
    <line x1="1340" y1="260" x2="1200" y2="340"/>
    <line x1="1020" y1="340" x2="1200" y2="340"/>
    <line x1="1180" y1="260" x2="1180" y2="430"/>
  </g>

  <!-- Lights -->
  <g opacity="0.9">
    <circle cx="420" cy="690" r="18" fill="#60a5fa" opacity="0.25"/>
    <circle cx="420" cy="690" r="6" fill="#93c5fd" opacity="0.9"/>
    <circle cx="820" cy="690" r="18" fill="#22c55e" opacity="0.18"/>
    <circle cx="820" cy="690" r="6" fill="#86efac" opacity="0.85"/>
    <circle cx="1200" cy="690" r="18" fill="#60a5fa" opacity="0.20"/>
    <circle cx="1200" cy="690" r="6" fill="#93c5fd" opacity="0.85"/>
  </g>

  <rect width="1600" height="900" filter="url(#noise)"/>
</svg>
